<?xml version="1.0" encoding="utf-8"?>
<!-- Generator: Adobe Illustrator 23.0.1, SVG Export Plug-In . SVG Version: 6.00 Build 0)  -->
<svg version="1.1" id="Layer_1" xmlns="http://www.w3.org/2000/svg" xmlns:xlink="http://www.w3.org/1999/xlink" x="0px" y="0px"
	 viewBox="0 0 800 600" style="enable-background:new 0 0 800 600;" xml:space="preserve">
<style type="text/css">
	.st0{fill:none;stroke:#000000;stroke-width:5;stroke-miterlimit:10;}
	.st1{fill:#662D91;}
	.st2{fill:#FF7BAC;stroke:#D57BAC;stroke-width:7;stroke-miterlimit:10;}
	.st3{fill:#00FF00;}
	.st4{fill:#FF7BAC;}
	.st5{fill:#0000FF;}
	.st6{fill:#007F00;}
	.st7{fill:#FF0000;}
	.st8{fill:#FBB03B;stroke:#FBB03B;stroke-width:5;stroke-miterlimit:10;}
	.st9{stroke:#000000;stroke-width:5;stroke-miterlimit:10;}
	.st10{fill:#FBB03B;stroke:#000000;stroke-width:5;stroke-miterlimit:10;}
	.st11{fill:none;stroke:#FBB03B;stroke-width:5;stroke-miterlimit:10;}
	.st12{fill:none;stroke:#FF0000;stroke-width:5;stroke-miterlimit:10;}
	.st13{fill:#FFFF00;}
	.st14{fill:none;stroke:#000000;stroke-width:4;stroke-miterlimit:10;}
	.st15{fill:none;}
	.st16{fill:none;stroke:#FBB03B;stroke-width:4;stroke-miterlimit:10;}
	.st17{fill:none;stroke:#FBB03B;stroke-width:6;stroke-miterlimit:10;}
	.st18{font-family:'Courier';}
	.st19{font-size:48px;}
	.st20{font-size:24px;}
	.st21{font-size:36px;}
	.st22{font-size:18px;}
</style>
<line class="st0" x1="608.5" y1="240" x2="608.5" y2="268"/>
<g>
	<rect x="25" y="25" class="st1" width="250" height="150"/>
</g>
<rect x="700" y="99" class="st2" width="75" height="75"/>
<polyline class="st3" points="582,136 555,124 555,74 605,99 655,124 655,174 655,224 605,249 555,274 555,224 582,211 "/>
<rect x="700" y="174" class="st2" width="75" height="75"/>
<rect x="576" y="267" class="st4" width="75" height="38"/>
<rect x="30" y="403" class="st5" width="75" height="75"/>
<rect x="115" y="403" class="st6" width="75" height="75"/>
<g>
	<rect x="200" y="403" class="st1" width="75" height="75"/>
</g>
<rect x="30" y="508" class="st5" width="75" height="75"/>
<rect x="371" y="177" class="st5" width="75" height="75"/>
<rect x="359" y="25" class="st7" width="100" height="100"/>
<line class="st8" x1="68.9" y1="336.87" x2="68.65" y2="175"/>
<line class="st8" x1="78.77" y1="336.87" x2="78.77" y2="175"/>
<line class="st8" x1="62.9" y1="403" x2="62.65" y2="362"/>
<line class="st8" x1="72.77" y1="403" x2="72.77" y2="362"/>
<line class="st8" x1="147.9" y1="403" x2="147.65" y2="362"/>
<line class="st8" x1="157.77" y1="403" x2="157.77" y2="362"/>
<line class="st8" x1="147.9" y1="337" x2="147.65" y2="287"/>
<line class="st9" x1="172.5" y1="325" x2="172.5" y2="287"/>
<line class="st10" x1="152.5" y1="262" x2="152.24" y2="175"/>
<line class="st11" x1="408.42" y1="252" x2="408.42" y2="493"/>
<line class="st11" x1="87" y1="491.4" x2="408" y2="491.4"/>
<line class="st8" x1="62.9" y1="508" x2="62.65" y2="478"/>
<line class="st8" x1="89.41" y1="508" x2="89.41" y2="478"/>
<line class="st8" x1="152.53" y1="489" x2="152.53" y2="478"/>
<line class="st8" x1="237.5" y1="489" x2="237.5" y2="478"/>
<line class="st8" x1="234.9" y1="403" x2="234.65" y2="362"/>
<line class="st8" x1="245.21" y1="386" x2="245.21" y2="362"/>
<line class="st11" x1="245" y1="383.89" x2="408" y2="383.89"/>
<line class="st0" x1="422" y1="323" x2="740" y2="323"/>
<line class="st0" x1="737.91" y1="252.32" x2="737.91" y2="325"/>
<line class="st0" x1="170" y1="323.41" x2="396" y2="323.41"/>
<path class="st0" d="M423.5,325.5c0-8.29-6.71-15-15-15"/>
<path class="st0" d="M408.5,310.5c-8.29,0-15,6.71-15,15"/>
<line class="st0" x1="422" y1="283.01" x2="493" y2="283.01"/>
<line class="st0" x1="238" y1="284.68" x2="396" y2="284.68"/>
<path class="st0" d="M423.5,285.5c0-8.29-6.71-15-15-15"/>
<path class="st0" d="M408.5,270.5c-8.29,0-15,6.71-15,15"/>
<line class="st10" x1="239.9" y1="285" x2="239.76" y2="175"/>
<line class="st11" x1="410.04" y1="260.06" x2="493" y2="260.06"/>
<line class="st0" x1="518" y1="259.5" x2="555" y2="259.5"/>
<line class="st10" x1="409.5" y1="177" x2="409.43" y2="125"/>
<line class="st0" x1="240" y1="222.5" x2="371" y2="222.5"/>
<line class="st12" x1="309.77" y1="39" x2="359.16" y2="39"/>
<line class="st12" x1="309.77" y1="49" x2="359.16" y2="49"/>
<line class="st12" x1="309.77" y1="59" x2="359.16" y2="59"/>
<line class="st12" x1="309.77" y1="69" x2="359.16" y2="69"/>
<line class="st12" x1="309.77" y1="79" x2="359.16" y2="79"/>
<line class="st12" x1="309.77" y1="89" x2="359.16" y2="89"/>
<line class="st12" x1="309.77" y1="99" x2="359.16" y2="99"/>
<line class="st12" x1="309.77" y1="109" x2="359.16" y2="109"/>
<line class="st0" x1="538.12" y1="260" x2="538.12" y2="288"/>
<line class="st0" x1="539" y1="285.5" x2="576" y2="285.5"/>
<polyline class="st0" points="651,273 714,273 714,293.01 "/>
<g>
	<polygon class="st13" points="518,292 493,307 493,232 518,247 	"/>
	<polygon class="st13" points="248.4,337 275,362 30,362 56.6,337 	"/>
	<polygon class="st13" points="175,262 190,287 115,287 130,262 	"/>
	<polygon class="st13" points="715,316 700,291 775,291 760,316 	"/>
</g>
<polyline class="st0" points="737.97,95.45 737.97,49 513.67,49 513.67,96.05 554.9,96.05 "/>
<polyline class="st14" points="141.51,184.65 152.12,174.04 162.72,184.65 "/>
<polyline class="st14" points="398.51,135.65 409.12,125.04 419.72,135.65 "/>
<polyline class="st14" points="161.89,297.65 172.5,287.04 183.11,297.65 "/>
<polyline class="st14" points="250.43,181.65 239.83,192.26 229.22,181.65 "/>
<polyline class="st14" points="360.83,212.04 371.43,222.65 360.83,233.26 "/>
<line class="st0" x1="655" y1="174.69" x2="698" y2="174.69"/>
<polyline class="st14" points="687.83,164.04 698.43,174.65 687.83,185.26 "/>
<path id="SVGID_x5F_1_x5F_" class="st15" d="M482.83,272.04l10.61,10.61l-10.61,10.61"/>
<text><textPath  xlink:href="#SVGID_x5F_1_x5F_" startOffset="75.5193%">
</textPath>
</text>
<polyline class="st14" points="544.83,249.04 555.43,259.65 544.83,270.26 "/>
<polyline class="st14" points="544.83,85.04 555.43,95.65 544.83,106.26 "/>
<polyline class="st14" points="566.83,274.04 577.43,284.65 566.83,295.26 "/>
<polyline class="st14" points="619.43,256.65 608.83,267.26 598.22,256.65 "/>
<polyline class="st14" points="724.43,280.65 713.83,291.26 703.22,280.65 "/>
<polyline class="st14" points="748.43,281.65 737.83,292.26 727.22,281.65 "/>
<polyline class="st16" points="136.89,297.65 147.5,287.04 158.11,297.65 "/>
<polyline class="st17" points="138.6,372.99 152.74,358.85 166.88,372.99 "/>
<polyline class="st17" points="53.6,372.99 67.74,358.85 81.88,372.99 "/>
<polyline class="st17" points="59.6,185.99 73.74,171.85 87.88,185.99 "/>
<polyline class="st17" points="225.6,372.99 239.74,358.85 253.88,372.99 "/>
<polyline class="st16" points="226.89,485.65 237.5,475.04 248.11,485.65 "/>
<polyline class="st16" points="485.5,249.04 496.11,259.65 485.5,270.26 "/>
<polyline class="st16" points="141.89,485.65 152.5,475.04 163.11,485.65 "/>
<polyline class="st16" points="51.89,485.65 62.5,475.04 73.11,485.65 "/>
<polyline class="st16" points="78.89,485.65 89.5,475.04 100.11,485.65 "/>
<polyline class="st16" points="100.11,499.65 89.5,510.26 78.89,499.65 "/>
<rect x="94.42" y="78.43" class="st15" width="114.58" height="40.57"/>
<text transform="matrix(1 0 0 1 108.5005 107.8574)" class="st18 st19">MEM</text>
<rect x="377.42" y="58.43" class="st15" width="62.58" height="40.57"/>
<text transform="matrix(1 0 0 1 379.9028 87.8574)" class="st18 st19">UC</text>
<rect x="708.42" y="116.43" class="st15" width="62.58" height="40.57"/>
<text transform="matrix(1 0 0 1 725.3052 145.8574)" class="st18 st19">A</text>
<rect x="708.42" y="192.43" class="st15" width="62.58" height="40.57"/>
<text transform="matrix(1 0 0 1 725.3052 221.8574)" class="st18 st19">B</text>
<rect x="378.42" y="198.43" class="st15" width="62.58" height="40.57"/>
<text transform="matrix(1 0 0 1 380.9028 227.8574)" class="st18 st19">OP</text>
<rect x="130.42" y="266.43" class="st15" width="44.58" height="15.57"/>
<text transform="matrix(1 0 0 1 131.104 281.146)" class="st18 st20">MUX</text>
<rect x="715.42" y="295.43" class="st15" width="44.58" height="15.57"/>
<text transform="matrix(1 0 0 1 716.104 310.146)" class="st18 st20">MUX</text>
<rect x="125.42" y="340.43" class="st15" width="44.58" height="15.57"/>
<text transform="matrix(1 0 0 1 126.104 355.146)" class="st18 st20">MUX</text>
<rect x="36.42" y="420.43" class="st15" width="62.58" height="40.57"/>
<text transform="matrix(1 0 0 1 38.9028 449.8574)" class="st18 st19">PC</text>
<rect x="121.42" y="420.43" class="st15" width="62.58" height="40.57"/>
<text transform="matrix(1 0 0 1 123.9028 449.8574)" class="st18 st19">SP</text>
<rect x="197.42" y="420.43" class="st15" width="84.58" height="40.57"/>
<text transform="matrix(1 0 0 1 210.9028 449.8574)" class="st18 st19">MH</text>
<rect x="25.42" y="525.43" class="st15" width="84.58" height="40.57"/>
<text transform="matrix(1 0 0 1 38.9028 554.8574)" class="st18 st19">JH</text>
<rect x="580.36" y="270.81" class="st15" width="67.92" height="30.57"/>
<text transform="matrix(1 0 0 1 585.5156 300.2354)" class="st18 st19">FL</text>
<rect x="584" y="157.43" class="st15" width="68.79" height="32.57"/>
<text transform="matrix(1 0 0 1 585.9902 179.502)" class="st18 st21">UAL</text>
<text transform="matrix(1 0 0 1 500.2402 261.5283)"><tspan x="0" y="0" class="st18 st22">M</tspan><tspan x="0" y="14" class="st18 st22">U</tspan><tspan x="0" y="28" class="st18 st22">X</tspan></text>
</svg>
