<?xml version="1.0" encoding="utf-8"?>
<!-- Generator: Adobe Illustrator 23.0.1, SVG Export Plug-In . SVG Version: 6.00 Build 0)  -->
<svg version="1.1" id="Layer_1" xmlns="http://www.w3.org/2000/svg" xmlns:xlink="http://www.w3.org/1999/xlink" x="0px" y="0px"
	 viewBox="0 0 470 560" style="enable-background:new 0 0 470 560;" xml:space="preserve">
<style type="text/css">
	.st0{fill:none;stroke:#000000;stroke-width:5;stroke-miterlimit:10;}
	.st1{fill:none;stroke:#000000;stroke-width:5;stroke-miterlimit:10;stroke-dasharray:18.4958,4.624;}
	.st2{fill:none;stroke:#000000;stroke-width:5;stroke-miterlimit:10;stroke-dasharray:18.3721,4.593;}
	.st3{fill:none;}
	.st4{font-family:'Courier';font-weight: bold;}
	.st5{font-size:24px;}
	.st6{font-family:'Courier';}
	.st7{font-size:72px;}
</style>
<g>
	<path d="M445,225v90H25v-90H445 M450,220H20v100h430V220L450,220z"/>
</g>
<g>
	<path d="M445,25v90H225V25H445 M450,20H220v100h230V20L450,20z"/>
</g>
<g>
	<path d="M135,25v90H25V25H135 M140,20H20v100h120V20L140,20z"/>
</g>
<g>
	<path d="M116,425v90H26v-90H116 M121,420H21v100h100V420L121,420z"/>
</g>
<g>
	<path d="M226,425v90h-90v-90H226 M231,420H131v100h100V420L231,420z"/>
</g>
<g>
	<path d="M336,425v90h-90v-90H336 M341,420H241v100h100V420L341,420z"/>
</g>
<g>
	<path d="M445,425v90h-90v-90H445 M450,420H350v100h100V420L450,420z"/>
</g>
<g>
	<g>
		<line class="st0" x1="71.5" y1="413.48" x2="71.5" y2="403.48"/>
		<line class="st1" x1="71.5" y1="398.86" x2="71.5" y2="331.81"/>
		<line class="st0" x1="71.5" y1="329.5" x2="71.5" y2="319.5"/>
		<g>
			<path d="M95.5,379.31c-1.16-0.74-2.71-0.4-3.45,0.77L71.5,412.34l-20.55-32.26c-0.74-1.16-2.29-1.51-3.45-0.77
				c-1.16,0.74-1.5,2.3-0.77,3.45l22.66,35.57c0.46,0.72,1.25,1.16,2.11,1.16s1.65-0.44,2.11-1.16l22.66-35.57
				c0.26-0.42,0.39-0.88,0.39-1.34C96.66,380.6,96.25,379.79,95.5,379.31z"/>
		</g>
	</g>
</g>
<g>
	<g>
		<line class="st0" x1="180.5" y1="413.99" x2="180.5" y2="403.99"/>
		<line class="st1" x1="180.5" y1="399.36" x2="180.5" y2="332.32"/>
		<line class="st0" x1="180.5" y1="330.01" x2="180.5" y2="320.01"/>
		<g>
			<path d="M204.5,379.82c-1.16-0.74-2.71-0.4-3.45,0.77l-20.55,32.26l-20.55-32.26c-0.74-1.16-2.29-1.51-3.45-0.77
				c-1.16,0.74-1.5,2.3-0.77,3.45l22.66,35.57c0.46,0.72,1.25,1.16,2.11,1.16s1.65-0.44,2.11-1.16l22.66-35.57
				c0.26-0.42,0.39-0.88,0.39-1.34C205.66,381.1,205.25,380.3,204.5,379.82z"/>
		</g>
	</g>
</g>
<g>
	<g>
		<line class="st0" x1="291.5" y1="413.99" x2="291.5" y2="403.99"/>
		<line class="st1" x1="291.5" y1="399.36" x2="291.5" y2="332.32"/>
		<line class="st0" x1="291.5" y1="330.01" x2="291.5" y2="320.01"/>
		<g>
			<path d="M315.5,379.82c-1.16-0.74-2.71-0.4-3.45,0.77l-20.55,32.26l-20.55-32.26c-0.74-1.16-2.29-1.51-3.45-0.77
				c-1.16,0.74-1.5,2.3-0.77,3.45l22.66,35.57c0.46,0.72,1.25,1.16,2.11,1.16s1.65-0.44,2.11-1.16l22.66-35.57
				c0.26-0.42,0.39-0.88,0.39-1.34C316.66,381.1,316.25,380.3,315.5,379.82z"/>
		</g>
	</g>
</g>
<g>
	<g>
		<line class="st0" x1="400.5" y1="413.99" x2="400.5" y2="403.99"/>
		<line class="st1" x1="400.5" y1="399.36" x2="400.5" y2="332.32"/>
		<line class="st0" x1="400.5" y1="330.01" x2="400.5" y2="320.01"/>
		<g>
			<path d="M424.5,379.82c-1.16-0.74-2.71-0.4-3.45,0.77l-20.55,32.26l-20.55-32.26c-0.74-1.16-2.29-1.51-3.45-0.77
				c-1.16,0.74-1.5,2.3-0.77,3.45l22.66,35.57c0.46,0.72,1.25,1.16,2.11,1.16s1.65-0.44,2.11-1.16l22.66-35.57
				c0.26-0.42,0.39-0.88,0.39-1.34C425.66,381.1,425.25,380.3,424.5,379.82z"/>
		</g>
	</g>
</g>
<g>
	<g>
		<line class="st0" x1="334.5" y1="213.49" x2="334.5" y2="203.49"/>
		<line class="st2" x1="334.5" y1="198.9" x2="334.5" y2="132.3"/>
		<line class="st0" x1="334.5" y1="130" x2="334.5" y2="120"/>
		<g>
			<path d="M358.5,179.32c-1.16-0.74-2.71-0.4-3.45,0.77l-20.55,32.26l-20.55-32.26c-0.74-1.16-2.29-1.51-3.45-0.77
				c-1.16,0.74-1.5,2.3-0.77,3.45l22.66,35.57c0.46,0.72,1.25,1.16,2.11,1.16s1.65-0.44,2.11-1.16l22.66-35.57
				c0.26-0.42,0.39-0.88,0.39-1.34C359.66,180.6,359.25,179.8,358.5,179.32z"/>
		</g>
	</g>
</g>
<g>
	<g>
		<line class="st0" x1="214.49" y1="70.5" x2="139.5" y2="70.5"/>
		<g>
			<path d="M180.32,46.5c-0.74,1.16-0.4,2.71,0.77,3.45l32.26,20.55l-32.26,20.55c-1.16,0.74-1.51,2.29-0.77,3.45
				c0.74,1.16,2.3,1.5,3.45,0.77l35.57-22.66c0.72-0.46,1.16-1.25,1.16-2.11s-0.44-1.65-1.16-2.11l-35.57-22.66
				c-0.42-0.26-0.88-0.39-1.34-0.39C181.6,45.34,180.8,45.75,180.32,46.5z"/>
		</g>
	</g>
</g>
<rect x="19.64" y="59" class="st3" width="121.36" height="22"/>
<text transform="matrix(1 0 0 1 29.9126 78.1016)" class="st4 st5">HORLOGE</text>
<rect x="34.64" y="433" class="st3" width="73.36" height="74"/>
<text transform="matrix(1 0 0 1 49.7173 489.5664)" class="st6 st7">A</text>
<rect x="145.64" y="433" class="st3" width="73.36" height="74"/>
<text transform="matrix(1 0 0 1 160.7173 489.5664)" class="st6 st7">B</text>
<rect x="254.64" y="433" class="st3" width="73.36" height="74"/>
<text transform="matrix(1 0 0 1 269.7173 489.5664)" class="st6 st7">C</text>
<rect x="363.64" y="433" class="st3" width="73.36" height="74"/>
<text transform="matrix(1 0 0 1 378.7173 489.5664)" class="st6 st7">D</text>
<rect x="84.64" y="134" class="st3" width="225.36" height="22"/>
<text transform="matrix(1 0 0 1 110.9067 153.1016)" class="st4 st5">INTERRUPTION</text>
<rect x="257.64" y="59" class="st3" width="155.36" height="22"/>
<text transform="matrix(1 0 0 1 263.3091 78.1016)" class="st4 st5">PROCESSEUR</text>
<rect x="45.64" y="259" class="st3" width="371.36" height="22"/>
<text transform="matrix(1 0 0 1 72.895 278.1016)" class="st4 st5">SYSTEME D’EXPLOITATION</text>
<rect x="-140.36" y="524" class="st3" width="751.36" height="22"/>
<text transform="matrix(1 0 0 1 12.0845 543.1016)" class="st4 st5">PROGRAMMES EN COURS D’EXECUTION</text>
</svg>
