<?xml version="1.0" encoding="utf-8"?>
<!-- Generator: Adobe Illustrator 23.0.1, SVG Export Plug-In . SVG Version: 6.00 Build 0)  -->
<svg version="1.1" id="Layer_1" xmlns="http://www.w3.org/2000/svg" xmlns:xlink="http://www.w3.org/1999/xlink" x="0px" y="0px"
	 viewBox="0 0 800 600" style="enable-background:new 0 0 800 600;" xml:space="preserve">
<style type="text/css">
	.st0{fill:none;stroke:#000000;stroke-width:5;stroke-miterlimit:10;}
	.st1{fill:#662D91;}
	.st2{fill:#FF7BAC;}
	.st3{fill:#00FF00;}
	.st4{fill:#0000FF;}
	.st5{fill:#007F00;}
	.st6{fill:#FF0000;}
	.st7{fill:#FBB03B;stroke:#FBB03B;stroke-width:5;stroke-miterlimit:10;}
	.st8{stroke:#000000;stroke-width:5;stroke-miterlimit:10;}
	.st9{fill:#FBB03B;stroke:#000000;stroke-width:5;stroke-miterlimit:10;}
	.st10{fill:none;stroke:#FBB03B;stroke-width:5;stroke-miterlimit:10;}
	.st11{fill:none;stroke:#FF0000;stroke-width:5;stroke-miterlimit:10;}
	.st12{fill:#FFFF00;}
	.st13{fill:none;stroke:#000000;stroke-width:4;stroke-miterlimit:10;}
	.st14{fill:none;stroke:#FBB03B;stroke-width:4;stroke-miterlimit:10;}
	.st15{fill:none;stroke:#FBB03B;stroke-width:6;stroke-miterlimit:10;}
	.st16{fill:none;}
	.st17{font-family:'Courier';}
	.st18{font-size:48px;}
	.st19{font-size:21px;}
	.st20{font-size:24px;}
	.st21{font-size:36px;}
	.st22{font-size:24px;glyph-orientation-vertical:0;writing-mode:tb;}
	.st23{letter-spacing:-6;}
</style>
<line class="st0" x1="608.5" y1="240" x2="608.5" y2="268"/>
<g>
	<rect x="25" y="25" class="st1" width="250" height="150"/>
</g>
<rect x="700" y="139.5" class="st2" width="75" height="75"/>
<polyline class="st3" points="582,136 555,124 555,74 605,99 655,124 655,174 655,224 605,249 555,274 555,224 582,211 "/>
<rect x="576" y="267" class="st2" width="75" height="38"/>
<rect x="30" y="403" class="st4" width="75" height="75"/>
<rect x="115" y="403" class="st5" width="75" height="75"/>
<g>
	<rect x="200" y="403" class="st1" width="75" height="75"/>
</g>
<rect x="30" y="508" class="st4" width="75" height="75"/>
<rect x="371" y="177" class="st4" width="75" height="75"/>
<rect x="359" y="25" class="st6" width="100" height="100"/>
<line class="st7" x1="68.9" y1="336.87" x2="68.65" y2="175"/>
<line class="st7" x1="78.77" y1="336.87" x2="78.77" y2="175"/>
<line class="st7" x1="62.9" y1="403" x2="62.65" y2="362"/>
<line class="st7" x1="72.77" y1="403" x2="72.77" y2="362"/>
<line class="st7" x1="147.9" y1="403" x2="147.65" y2="362"/>
<line class="st7" x1="157.77" y1="403" x2="157.77" y2="362"/>
<line class="st7" x1="147.9" y1="337" x2="147.65" y2="287"/>
<line class="st8" x1="172.5" y1="325" x2="172.5" y2="287"/>
<line class="st9" x1="152.5" y1="262" x2="152.24" y2="175"/>
<line class="st10" x1="408.42" y1="252" x2="408.42" y2="353.5"/>
<polyline class="st10" points="87,489.65 424,489.65 424,378.5 "/>
<line class="st7" x1="62.9" y1="508" x2="62.65" y2="478"/>
<line class="st7" x1="89.41" y1="508" x2="89.41" y2="478"/>
<line class="st7" x1="152.53" y1="489" x2="152.53" y2="478"/>
<line class="st7" x1="237.5" y1="489" x2="237.5" y2="478"/>
<path class="st7" d="M234.65,362"/>
<path class="st7" d="M245.21,362"/>
<polyline class="st10" points="245.2,362 245.21,396.13 474.74,396.13 474.74,296.66 493,296.66 "/>
<line class="st10" x1="234.2" y1="362" x2="234.21" y2="403"/>
<polyline class="st0" points="488.96,323 737.5,323 737.61,316 "/>
<polyline class="st0" points="737.91,291 737.91,252.32 737.91,214.43 "/>
<line class="st0" x1="170" y1="323.41" x2="396" y2="323.41"/>
<path class="st0" d="M423.5,325.5c0-8.29-6.71-15-15-15"/>
<path class="st0" d="M408.5,310.5c-8.29,0-15,6.71-15,15"/>
<path class="st0" d="M490.27,325.5c0-8.29-6.71-15-15-15"/>
<path class="st0" d="M475.27,310.5c-8.29,0-15,6.71-15,15"/>
<line class="st0" x1="422" y1="272.01" x2="493" y2="272.01"/>
<line class="st0" x1="238" y1="273.68" x2="396" y2="273.68"/>
<path class="st0" d="M423.5,274.5c0-8.29-6.71-15-15-15"/>
<path class="st0" d="M408.5,259.5c-8.29,0-15,6.71-15,15"/>
<line class="st9" x1="239.9" y1="285" x2="239.76" y2="175"/>
<line class="st9" x1="409.5" y1="177" x2="409.43" y2="125"/>
<line class="st0" x1="240" y1="222.5" x2="371" y2="222.5"/>
<line class="st11" x1="309.77" y1="39" x2="359.16" y2="39"/>
<line class="st11" x1="309.77" y1="49" x2="359.16" y2="49"/>
<line class="st11" x1="309.77" y1="59" x2="359.16" y2="59"/>
<line class="st11" x1="309.77" y1="69" x2="359.16" y2="69"/>
<line class="st11" x1="309.77" y1="79" x2="359.16" y2="79"/>
<line class="st11" x1="309.77" y1="89" x2="359.16" y2="89"/>
<line class="st11" x1="309.77" y1="99" x2="359.16" y2="99"/>
<line class="st11" x1="309.77" y1="109" x2="359.16" y2="109"/>
<polyline class="st0" points="538.12,288 538.12,260 555,260 "/>
<line class="st0" x1="518" y1="285.5" x2="576" y2="285.5"/>
<polyline class="st0" points="651,273 714,273 714,293.01 "/>
<polygon class="st12" points="518,306.19 493,317.19 493,242.19 518,261.19 "/>
<polygon class="st12" points="248.4,337 275,362 30,362 56.6,337 "/>
<polygon class="st12" points="175,262 190,287 115,287 130,262 "/>
<polygon class="st12" points="715,316 700,291 775,291 760,316 "/>
<polygon class="st3" points="401.5,378.5 386.5,353.5 461.5,353.5 446.5,378.5 "/>
<polyline class="st0" points="554.9,96.05 513.67,96.05 513.67,49 737.97,49 737.97,95.45 737.97,139.5 "/>
<polyline class="st13" points="141.51,184.65 152.12,174.04 162.72,184.65 "/>
<polyline class="st13" points="398.51,135.65 409.12,125.04 419.72,135.65 "/>
<polyline class="st13" points="161.89,297.65 172.5,287.04 183.11,297.65 "/>
<polyline class="st13" points="250.43,181.65 239.83,192.26 229.22,181.65 "/>
<polyline class="st13" points="360.83,212.04 371.43,222.65 360.83,233.26 "/>
<polyline class="st13" points="544.83,249.04 555.43,259.65 544.83,270.26 "/>
<polyline class="st13" points="483.95,260.76 494.55,271.36 483.95,281.97 "/>
<polyline class="st13" points="544.83,85.04 555.43,95.65 544.83,106.26 "/>
<polyline class="st13" points="566.83,274.04 577.43,284.65 566.83,295.26 "/>
<polyline class="st13" points="619.43,256.65 608.83,267.26 598.22,256.65 "/>
<line class="st0" x1="438.91" y1="325.5" x2="438.91" y2="353.5"/>
<polyline class="st13" points="449.51,342.7 438.91,353.31 428.3,342.7 "/>
<line class="st0" x1="655" y1="174.16" x2="696.66" y2="174.16"/>
<polyline class="st13" points="686.39,163.39 697,174 686.39,184.61 "/>
<polyline class="st13" points="724.43,280.65 713.83,291.26 703.22,280.65 "/>
<polyline class="st13" points="748.43,281.65 737.83,292.26 727.22,281.65 "/>
<polyline class="st14" points="136.89,297.65 147.5,287.04 158.11,297.65 "/>
<polyline class="st15" points="138.6,372.99 152.74,358.85 166.88,372.99 "/>
<polyline class="st15" points="53.6,372.99 67.74,358.85 81.88,372.99 "/>
<polyline class="st15" points="59.6,185.99 73.74,171.85 87.88,185.99 "/>
<polyline class="st15" points="225.6,372.99 239.74,357.85 253.88,371.99 "/>
<polyline class="st14" points="226.89,485.65 237.5,475.04 248.11,485.65 "/>
<polyline class="st14" points="419.02,344.2 408.42,354.8 397.81,344.2 "/>
<polyline class="st14" points="483.95,285.63 494.55,296.23 483.95,306.84 "/>
<polyline class="st14" points="141.89,485.65 152.5,475.04 163.11,485.65 "/>
<polyline class="st14" points="51.89,485.65 62.5,475.04 73.11,485.65 "/>
<polyline class="st14" points="78.89,485.65 89.5,475.04 100.11,485.65 "/>
<polyline class="st14" points="100.11,499.65 89.5,510.26 78.89,499.65 "/>
<rect x="94.42" y="78.43" class="st16" width="114.58" height="40.57"/>
<text transform="matrix(1 0 0 1 108.5005 107.8574)" class="st17 st18">MEM</text>
<rect x="51.99" y="150.55" class="st16" width="43.5" height="16.34"/>
<text transform="matrix(1 0 0 1 54.8396 163.4199)" class="st17 st19">ADR</text>
<rect x="218.25" y="151.68" class="st16" width="43.5" height="16.34"/>
<text transform="matrix(1 0 0 1 221.0971 164.552)" class="st17 st19">OUT</text>
<rect x="130.62" y="151.68" class="st16" width="43.5" height="16.34"/>
<text transform="matrix(1 0 0 1 139.7692 164.552)" class="st17 st19">IN</text>
<rect x="377.42" y="58.43" class="st16" width="62.58" height="40.57"/>
<text transform="matrix(1 0 0 1 379.9028 87.8574)" class="st17 st18">UC</text>
<rect x="708.42" y="156.93" class="st16" width="62.58" height="40.57"/>
<text transform="matrix(1 0 0 1 725.3052 186.3574)" class="st17 st18">A</text>
<rect x="378.42" y="198.43" class="st16" width="62.58" height="40.57"/>
<text transform="matrix(1 0 0 1 380.9028 227.8574)" class="st17 st18">OP</text>
<rect x="130.42" y="266.43" class="st16" width="44.58" height="15.57"/>
<text transform="matrix(1 0 0 1 131.104 281.146)" class="st17 st20">MUX</text>
<rect x="715.21" y="295.15" class="st16" width="44.58" height="15.57"/>
<text transform="matrix(1 0 0 1 715.8965 309.863)" class="st17 st20">MUX</text>
<rect x="125.42" y="340.43" class="st16" width="44.58" height="15.57"/>
<text transform="matrix(1 0 0 1 126.104 355.146)" class="st17 st20">MUX</text>
<rect x="36.42" y="420.43" class="st16" width="62.58" height="40.57"/>
<text transform="matrix(1 0 0 1 38.9028 449.8574)" class="st17 st18">PC</text>
<rect x="121.42" y="420.43" class="st16" width="62.58" height="40.57"/>
<text transform="matrix(1 0 0 1 123.9028 449.8574)" class="st17 st18">SP</text>
<rect x="197.42" y="420.43" class="st16" width="84.58" height="40.57"/>
<text transform="matrix(1 0 0 1 210.9028 449.8574)" class="st17 st18">MH</text>
<rect x="25.42" y="525.43" class="st16" width="84.58" height="40.57"/>
<text transform="matrix(1 0 0 1 38.9028 554.8574)" class="st17 st18">JH</text>
<rect x="580.36" y="270.81" class="st16" width="67.92" height="30.57"/>
<text transform="matrix(1 0 0 1 585.5156 300.2354)" class="st17 st18">FL</text>
<rect x="584" y="157.43" class="st16" width="68.79" height="32.57"/>
<text transform="matrix(1 0 0 1 585.9902 179.502)" class="st17 st21">UAL</text>
<rect x="389.6" y="353.31" class="st16" width="68.79" height="32.57"/>
<text transform="matrix(1 0 0 1 413.1975 375.3768)" class="st17 st21">+</text>
<text transform="matrix(1 0 0 1 505.5 252.7292)" class="st17 st22 st23">MUX</text>
<line class="st0" x1="458.89" y1="323" x2="424.89" y2="323"/>
</svg>
