<?xml version="1.0" encoding="utf-8"?>
<!-- Generator: Adobe Illustrator 23.0.1, SVG Export Plug-In . SVG Version: 6.00 Build 0)  -->
<svg version="1.1" id="Layer_1" xmlns="http://www.w3.org/2000/svg" xmlns:xlink="http://www.w3.org/1999/xlink" x="0px" y="0px"
	 viewBox="0 0 800 200" style="enable-background:new 0 0 800 200;" xml:space="preserve">
<style type="text/css">
	.st0{fill:#FFFFFF;}
	.st1{fill:none;stroke:#000000;stroke-miterlimit:10;}
	.st2{fill:none;}
	.st3{font-family:'Courier';}
	.st4{font-size:18px;}
</style>
<g>
	<rect x="26.5" y="60.5" class="st0" width="749" height="79"/>
	<path d="M775,61v78H27V61H775 M776,60H26v80h750V60L776,60z"/>
</g>
<g>
	<g>
		<line class="st1" x1="24.5" y1="168.5" x2="768.46" y2="168.5"/>
		<g>
			<path d="M774.5,168.5c-2.84,1.05-6.36,2.85-8.55,4.76l1.72-4.76l-1.72-4.75C768.14,165.65,771.66,167.45,774.5,168.5z"/>
		</g>
	</g>
</g>
<rect x="665.08" y="174.08" class="st2" width="91.92" height="16.92"/>
<text transform="matrix(1 0 0 1 667.8306 185.1104)" class="st3 st4">adresses</text>
<rect x="-19.92" y="39.08" class="st2" width="91.92" height="16.92"/>
<text transform="matrix(1 0 0 1 20.6367 50.1104)" class="st3 st4">0</text>
<rect x="725.08" y="12.08" class="st2" width="91.92" height="40.92"/>
<text transform="matrix(1 0 0 1 749.4341 23.1104)"><tspan x="0" y="0" class="st3 st4">FF00</tspan><tspan x="0" y="14.6" class="st3 st4">FFFF</tspan><tspan x="5.4" y="29.2" class="st3 st4">I/O</tspan></text>
<rect x="377.08" y="12.08" class="st2" width="91.92" height="40.92"/>
<text transform="matrix(1 0 0 1 401.4341 23.1104)"><tspan x="0" y="0" class="st3 st4">8000</tspan><tspan x="0" y="14.6" class="st3 st4">8FFF</tspan><tspan x="0" y="29.2" class="st3 st4">VRAM</tspan></text>
<rect x="567.08" y="12.08" class="st2" width="91.92" height="40.92"/>
<text transform="matrix(1 0 0 1 591.4341 23.1104)"><tspan x="0" y="0" class="st3 st4">9000</tspan><tspan x="0" y="14.6" class="st3 st4">FEFF</tspan><tspan x="5.4" y="29.2" class="st3 st4">RAM</tspan></text>
<rect x="157.08" y="12.08" class="st2" width="91.92" height="40.92"/>
<text transform="matrix(1 0 0 1 181.4341 23.1104)"><tspan x="0" y="0" class="st3 st4">0000</tspan><tspan x="0" y="14.6" class="st3 st4">7FFF</tspan><tspan x="5.4" y="29.2" class="st3 st4">RAM</tspan></text>
<rect x="399" y="60" width="48" height="80"/>
<rect x="766" y="60" width="10" height="80"/>
</svg>
